<svg xmlns="http://www.w3.org/2000/svg" width="124" height="124" fill="none" viewBox="0 0 124 124"><path fill="url(#a)" d="M85.957 58.284C85.107 72.132 73.19 82.67 59.342 81.82c-13.85-.85-24.386-12.769-23.535-26.616.851-13.848 28.188-49.095 28.188-49.095S86.81 44.436 85.958 58.286z"/><path fill="url(#b)" d="M59.29 82.676c-14.3-.88-25.217-13.226-24.338-27.526.859-13.95 27.243-48.12 28.365-49.568l.77-.994.645 1.081c.937 1.576 22.939 38.717 22.083 52.67-.88 14.297-13.226 25.216-27.526 24.337M63.9 7.644c-4.44 5.85-26.492 35.479-27.238 47.612-.82 13.353 9.376 24.886 22.732 25.708 13.354.82 24.886-9.376 25.706-22.73.746-12.135-17.51-44.24-21.2-50.588z"/><path fill="url(#c)" d="M83.236 51.425c3.246 11.827-3.71 24.044-15.535 27.29s-24.044-3.711-27.29-15.536 3.711-24.044 15.536-27.29 24.043 3.71 27.29 15.536"/><path fill="url(#d)" d="M80.953 58.479c-.648 10.565-9.74 18.603-20.306 17.952-10.565-.648-18.603-9.74-17.955-20.305s9.74-18.603 20.306-17.952c10.563.648 18.603 9.74 17.953 20.305z" style="mix-blend-mode:multiply"/><g clip-path="url(#clip0_4002_42411)"><path fill="#fff" d="m77.757 53.575-.521 2.336a.245.245 0 0 1-.237.19h-.744a.245.245 0 0 1-.244-.258v-.042c.036-.761-.449-1.33-1.54-1.33-1.818 0-3.14 1.483-3.316 3.434-.18 2.011 1.236 3.183 3.193 3.183 1.006 0 1.8-.193 2.245-.332a.246.246 0 0 1 .316.279l-.23 1.207a.28.28 0 0 1-.194.218c-.402.129-1.526.425-3.254.425-4.098 0-5.761-2.343-5.503-4.734.23-2.129 1.645-5.266 7.227-5.266 1.07 0 1.925.172 2.597.354a.28.28 0 0 1 .201.336zm-23.3-.329-.137.607a.27.27 0 0 0 .183.315c.237.09.287.314.083.486l-3.43 2.833.588-2.672c.101-.411.428-.58.636-.647.01 0 .022-.007.032-.01a.26.26 0 0 0 .18-.197l.14-.633a.243.243 0 0 0-.237-.293h-4.414a.26.26 0 0 0-.259.208l-.144.639a.26.26 0 0 0 .173.304l.043.014c.276.107.6.35.463.99l-1.052 4.798c-.277 1.311-.722 1.579-1.15 1.629h-.014a.27.27 0 0 0-.233.207l-.137.615a.256.256 0 0 0 .248.31h4.648a.24.24 0 0 0 .237-.189l.161-.718a.24.24 0 0 0-.15-.279l-.03-.01c-.236-.097-.556-.297-.473-.68l.539-2.454c1.85 3.366 2.464 4.334 4.683 4.334h2.005a.24.24 0 0 0 .237-.19l.14-.62a.26.26 0 0 0-.248-.319c-.503-.007-.747-.121-1.246-.76l-2.576-3.466 3.348-2.77c.449-.35.995-.446 1.3-.489h.029a.24.24 0 0 0 .215-.19l.137-.614a.245.245 0 0 0-.24-.296h-4.027a.26.26 0 0 0-.259.207zm12.38 2.665h.784a.24.24 0 0 0 .237-.189l.531-2.387a.245.245 0 0 0-.237-.296H59.92a.26.26 0 0 0-.258.207l-.144.64a.253.253 0 0 0 .162.293c.007 0 .018.007.029.01.269.104.646.365.485 1.004l-1.613 7.27a.243.243 0 0 0 .237.294h3.703a.24.24 0 0 0 .237-.19l.162-.725a.23.23 0 0 0-.133-.26.2.2 0 0 1-.036-.019c-.234-.114-.586-.378-.467-.886.01-.068.363-1.647.363-1.647h3.15a.24.24 0 0 0 .237-.189l.294-1.33a.244.244 0 0 0-.237-.296h-3.042l.567-2.576h2.123c.686 0 .895.354.855.961v.033a.245.245 0 0 0 .244.271z"/></g><defs><linearGradient id="a" x1="83.5927" x2="36.3245" y1="29.4746" y2="71.2755" gradientUnits="userSpaceOnUse"><stop stop-color="#FFF890"/><stop offset="0.14" stop-color="#FBE678"/><stop offset="0.24" stop-color="#F8D865"/><stop offset="0.28" stop-color="#DFB955"/><stop offset="0.34" stop-color="#C19140"/><stop offset="0.4" stop-color="#AB7532"/><stop offset="0.45" stop-color="#9D6429"/><stop offset="0.49" stop-color="#995E26"/><stop offset="0.52" stop-color="#9C6329"/><stop offset="0.55" stop-color="#A87232"/><stop offset="0.59" stop-color="#BA8C42"/><stop offset="0.64" stop-color="#D4B058"/><stop offset="0.68" stop-color="#F5DD73"/><stop offset="0.69" stop-color="#FBE578"/><stop offset="0.77" stop-color="#FFFDAA"/><stop offset="0.83" stop-color="#FBE578"/><stop offset="1" stop-color="#A45221"/></linearGradient><linearGradient id="b" x1="32.7224" x2="82.5054" y1="52.3063" y2="38.6429" gradientUnits="userSpaceOnUse"><stop stop-color="#FFF890"/><stop offset="0.14" stop-color="#FBE678"/><stop offset="0.24" stop-color="#F8D865"/><stop offset="0.28" stop-color="#DFB955"/><stop offset="0.34" stop-color="#C19140"/><stop offset="0.4" stop-color="#AB7532"/><stop offset="0.45" stop-color="#9D6429"/><stop offset="0.49" stop-color="#995E26"/><stop offset="0.52" stop-color="#9C6329"/><stop offset="0.55" stop-color="#A87232"/><stop offset="0.59" stop-color="#BA8C42"/><stop offset="0.64" stop-color="#D4B058"/><stop offset="0.68" stop-color="#F5DD73"/><stop offset="0.69" stop-color="#FBE578"/><stop offset="0.77" stop-color="#FFFDAA"/><stop offset="0.83" stop-color="#FBE578"/><stop offset="1" stop-color="#A45221"/></linearGradient><linearGradient id="c" x1="72.5158" x2="49.7875" y1="38.5175" y2="78.4412" gradientUnits="userSpaceOnUse"><stop stop-color="#FFF890"/><stop offset="0.14" stop-color="#FBE678"/><stop offset="0.24" stop-color="#F8D865"/><stop offset="0.28" stop-color="#DFB955"/><stop offset="0.34" stop-color="#C19140"/><stop offset="0.4" stop-color="#AB7532"/><stop offset="0.45" stop-color="#9D6429"/><stop offset="0.49" stop-color="#995E26"/><stop offset="0.52" stop-color="#9C6329"/><stop offset="0.55" stop-color="#A87232"/><stop offset="0.59" stop-color="#BA8C42"/><stop offset="0.64" stop-color="#D4B058"/><stop offset="0.68" stop-color="#F5DD73"/><stop offset="0.69" stop-color="#FBE578"/><stop offset="0.77" stop-color="#FFFDAA"/><stop offset="0.83" stop-color="#FBE578"/><stop offset="1" stop-color="#A45221"/></linearGradient><linearGradient id="d" x1="40.5646" x2="71.8473" y1="76.0901" y2="48.4257" gradientUnits="userSpaceOnUse"><stop stop-color="#FC4914"/><stop offset="0.61" stop-color="#DD1B31"/><stop offset="1" stop-color="#CD0441"/></linearGradient></defs></svg>