<svg xmlns="http://www.w3.org/2000/svg" width="40" height="40" fill="none" viewBox="0 0 40 40"><mask id="a" width="40" height="40" x="0" y="0" maskUnits="userSpaceOnUse" style="mask-type:luminance"><path fill="#fff" d="M20 40c11.046 0 20-8.954 20-20S31.046 0 20 0 0 8.954 0 20s8.954 20 20 20"/></mask><g mask="url(#a)"><path fill="#EA0029" d="M20 40c11.046 0 20-8.954 20-20S31.046 0 20 0 0 8.954 0 20s8.954 20 20 20"/><path fill="#801517" d="M6.104 13.254c.001.129 0 .219-.035.349-.054.209-.145.213-.336.279-.107.037-.367.135-.474.045-.095-.079-.056-.234-.052-.341-.187.286-.21.787-.687.71a3.6 3.6 0 0 0-.937-.015c-.096-.237-.058-.534-.057-.787.005.177-.211.254-.357.266-.107.01-.215 0-.262-.094-.048-.095-.04-.39-.048-.474-.02-.198-.064-.113-.23-.095-.096.01-.357.037-.453-.019-.22-.129-.218-.533-.28-.75-.041-.144-.123-.751-.334-.753-.143 0-.043.148-.141.204-.093.054-.34-.111-.384-.19-.086-.157-.099-.404-.135-.577a6 6 0 0 0-.07-.302c-.04.04-.14.055-.196.05-.188-.014-.193-.216-.209-.36-.018-.184-.035-.465.099-.619.067-.078.238-.087.19.05-.039.11-.183.076-.27.044C.24 9.8.097 9.494.072 9.294c-.022-.17-.014-.32.071-.463.036-.06.154-.252.233-.234.056.08.049.235-.054.26-.28.068-.357-1.313-.35-1.46.011-.251.018-.806.328-.856.242-.039.21.048.364.192-.188.11-.184-.706-.184-.707q.035-.465.292-.854a.95.95 0 0 1 .672-.273c.063-.008.59-.098.648.021.031.066-.034.197-.102.211-.079-.116-.074-.38-.07-.505.006-.235.14-.628.353-.759.103-.063.635-.226.702-.05-.046-.084.068-.293.103-.359.116-.217.276-.42.515-.509.087-.033.183-.063.249.029.037.053.01.122.026.18.047-.057.07-.13.103-.195.158-.323.346-.62.573-.899.157-.194.324-.425.526-.576.063-.047.104-.09.186-.079.016.085-.02.23.12.196.168-.042.159-.402.361-.46.073-.022.222.001.267.062.096.13-.043.463.122.556.08-.06.228-.444.375-.346a.15.15 0 0 0 .028.1c.077.015.09-.06.177-.044a.43.43 0 0 1 .231.183c.076.135.033.364.23.324.123-.025.235-.113.36-.149.258-.074.528-.056.795-.068.17-.008.175-.026.211.113.059.223-.046.47.027.692.193.01.37.023.56.065.075.017.231.031.287.106.051.07.007.307-.007.366-.033.13-.13.265-.122.4.113.032.226-.016.339.005.16.03.376.166.463.3.2.31.093.83-.056 1.128.237.005.48-.014.718-.02q.35-.008.697-.031.21-.015.216.2c.067.25.037.52-.064.754-.057.132-.196.278-.228.416-.034.143.048.157.088.277.046.137-.008.25.064.38.032.055.057.052.05.124q-.09.153-.16.316-.068.16-.141.317c-.067.127-.08.076-.208.131-.068.03-.12.09-.188.117a1.3 1.3 0 0 0-.24.114c-.05.03-.146.04-.184.083-.068.078.116.38.151.461.098.231.142.412.158.656.02.318.066.624.037.946q-.093.578-.227 1.148a.6.6 0 0 0-.044.407c.034-.19-.041-.261-.172-.365a.44.44 0 0 0-.1.352 1.4 1.4 0 0 1-.233.685c-.151.291-.371.73-.603.99-.082.092-.134.119-.252.123-.178.006-.326.013-.496.082a1.4 1.4 0 0 1-.48.132c-.178.008-.357.007-.536.01"/><path fill="#831618" d="M8.417 5.724c-.267.005-.562-.041-.794.117.14.141.208.313.243.51.084.462-.665.44-.876.706.105.114.254.197.35.318.093.117.065.253.066.393 0 .061-.005.129.002.19.01.085.061.112.086.18.03.083.023.25.023.325a.76.76 0 0 1-.093.429q-.085.15-.16.304c-.05.221.312.276.467.298.093.013.313-.03.338.083.02.086-.025.198-.003.286.049.211.314.003.435.09l.13.245q.087.273.085.558c.025.172.047.301.19.4.237.162.567-.041.824.05.009.141.022.286.06.424.143.028.236-.016.34-.115.132-.126.165-.132.278.026.049.067.078.115.154.146.13.055.372.019.515.014.444-.014.926-.116 1.254-.424.099.017.09.099.146.156.045.046.05.05.123.055.36.018.644-.384.833-.647.047.02.055.074.08.115.056.09.139.172.227.232.101.068.214.083.332.098.187.023.378.049.565.058.145.007.227.041.289-.105.065-.155.072-.437.025-.603a.2.2 0 0 0-.096.002c.42.02.574-.33.606-.691.005-.058-.011-.14.008-.194.02-.058.084-.11.118-.16.084-.118.17-.23.26-.345.04-.053.083-.092.096-.156-.004.075-.077.139-.124.187-.043-.072.017-.203.034-.278.074-.304.212-.596.311-.893.09-.273.185-.556.212-.844.006-.068.039-.324-.011-.385-.045-.055-.267-.02-.338-.016-.138.01-.38.101-.254.274.186-.06.211-.508.136-.661-.16.001-.315.058-.479.06-.146.002-.224-.002-.225-.18 0-.27.173-.547.31-.76.049-.078.32-.408.257-.542-.196.055-.328.163-.5.264-.071.042-.18.113-.259.063a2.3 2.3 0 0 1-.106-.391q-.09-.37-.155-.743c-.058-.333-.063-.748-.223-1.053-.165.014-.551-.002-.53.265 0-.165-.265.075-.288.091-.216.146-.47.274-.737.276-.142 0-.184.005-.208-.11-.02-.1.009-.22-.005-.32-.045.102-.136.175-.214.25a4 4 0 0 1-.24.215q-.121.115-.262.208c-.176-.01-.097-.28-.075-.392-.05-.048-.119.015-.167.041a7 7 0 0 1-.623.293c-.18.07-.363.15-.557.11-.043-.008-.049-.039-.102-.03l-.171.108-.384.214-.425.201a.75.75 0 0 1-.293.104c-.075-.007-.091-.027-.168-.058-.096.067-.072.25-.067.352.005.093.028.077-.042.14-.157.139-.388.136-.557.572z"/><path fill="#540F0F" d="M6.54 23.009c.134.031.244.058.373-.004q.217-.102.41-.264c.13-.11.264-.182.378-.325.163-.203.363-.366.477-.63.117-.273.23-.553.352-.82.061-.134.12-.238.154-.392.034-.161.087-.293.143-.438.073-.194.127-.401.201-.596.053-.138.097-.282.147-.423.065-.183.081-.385.126-.58.051-.227.096-.445.127-.682.068-.52.091-1.055.128-1.584l.02-.267c.01-.105-.008-.17-.019-.276-.007-.065 0-.133-.008-.198a7 7 0 0 0-.06-.277 1 1 0 0 1-.012-.2c-.004-.103-.036-.167-.058-.267-.015-.07-.015-.137-.02-.207a1 1 0 0 0-.053-.245c-.021-.072-.009-.098-.008-.17 0-.057-.02-.098-.035-.151-.02-.07-.016-.145-.038-.211-.028-.08-.081-.152-.113-.23-.03-.073-.044-.156-.076-.231-.021-.051-.046-.1-.065-.151-.019-.047-.026-.081-.037-.128a1 1 0 0 0-.072-.208c-.062-.146-.09-.307-.147-.456-.02-.056-.028-.113-.051-.168-.024-.058-.085-.132-.099-.195-.033-.163.105-.04.146-.022.062.025.13.032.193.05.095.026.175.017.27.017.11 0 .238.008.34-.043.052-.027.092-.053.144-.072.047-.018.146-.01.182-.052.013-.014.008-.05.02-.07.023-.034.073-.045.103-.063.069-.04.143-.07.212-.109.047-.026.16-.076.184-.13.017-.036.025-.135.036-.166.02-.06.043-.112.061-.173.061-.207.13-.409.19-.617.114-.397.28-.764.377-1.17.092-.383.211-.746.307-1.125.038-.15.104-.279.15-.422.054-.166.088-.337.158-.494.04-.086.04-.154.063-.249.018-.076.052-.123.06-.207.011-.109.038-.203.045-.313.006-.107.01-.219.021-.324.016-.147.044-.301.074-.441.03-.13.07-.256.082-.391.014-.132.09-.168.175-.186a.4.4 0 0 1 .304.054c.092.051.167.135.258.189-.008.025-.035.059-.059.061-.015.002-.032-.02-.048-.02-.045-.002-.057.032-.078.083-.068.16-.044.38-.091.554-.068.246-.159.483-.232.727-.101.338-.17.692-.262 1.035-.069.259-.15.51-.199.78-.046.258-.043.533-.1.786a7 7 0 0 0-.076.418c-.027.17-.027.364-.04.539-.013.19-.015.39-.053.571-.052.245-.085.498-.137.743-.02.092-.062.157-.086.242-.04.145-.029.35-.04.506-.001.023-.072.525-.02.568.034-.107.03-.248.061-.36.026-.098.079-.174.123-.258.053-.101.091-.229.15-.325.057-.094.107-.168.15-.282.03-.08.067-.143.11-.21.108-.165.227-.31.34-.465a3 3 0 0 1 .37-.439c.055-.052.095-.12.153-.161.045-.033.095-.053.14-.082a2.4 2.4 0 0 0 .326-.261c.039-.037.085-.086.132-.101.028-.01.053-.009.08-.02.053-.024.113-.075.165-.107.05-.031.102-.054.155-.08.106-.052.214-.094.32-.15.063-.033.134-.045.199-.076.05-.024.09-.067.14-.094.09-.047.186-.044.278-.072.04-.012.078-.034.12-.043.024-.006.051-.01.073-.02.05-.024.087-.087.124.01.022.056.01.131.015.19.004.053.023.113.005.163a.8.8 0 0 1-.24-.03c-.095-.027-.162.008-.214.124-.132.294-.351.516-.537.747-.076.094-.165.15-.231.256-.053.084-.112.163-.155.257-.021.046-.032.107-.055.15-.029.052-.086.083-.12.13-.097.132-.159.303-.26.429a1 1 0 0 0-.15.286c-.036.092-.07.187-.113.273-.067.135-.121.28-.186.417-.053.112-.09.23-.136.346s-.115.201-.154.323c-.058.184-.127.367-.19.55-.044.124-.07.257-.097.39-.02.095-.02.191-.059.275-.047.098-.05.174-.057.295-.01.148-.043.282-.055.428-.021.249-.035.5-.052.75l-.059.836c-.02.307-.047.595-.014.909.02.184.013.364.046.548.025.135.052.268.071.403q.013.105.02.21.009.075.022.146.013.073.022.145.29.833.578 1.632l.055.09c.128.207 1.09 1.066 1.067 1.214-.028.011-.933-.644-.967-.632q-.101.035-.246.066-.05.01-.102.023a.7.7 0 0 1-.143.136.3.3 0 0 1-.124.049q-.448-.16-1.2-.216a.4.4 0 0 0-.109.046c-.113.062-.267.122-.486.208l-.06.055-.062.054c-.046.037-.096.066-.138.11-.04.042-.072.084-.123.116-.17.105-.336.186-.527.216-.162.025-.331.008-.495.029-.113.014-.208.029-.321-.006-.057-.017-.128-.051-.183-.044-.11.017-.205.102-.295.172-.127.1-.23.188-.38.216-.09.016-.17-.005-.259-.02-.061-.01-.1.005-.157.021-.099.03-.188.046-.286.092l-.508-.071z"/><path fill="#AC1F24" d="M11.28 2.21q.06-.345.199-.665a3.2 3.2 0 0 1 .339-.756 1.6 1.6 0 0 1 .36-.115q.17-.036.333-.092c.168.057.104.385.11.528-.006-.153-.019-.305-.013-.458.007-.207.118-.366.284-.495.13-.1.403-.262.581-.193a.2.2 0 0 1-.006.093c.06.014.114-.043.16-.072.125-.074.279-.18.427-.208.08-.015.083.002.157.01.115.013.186-.048.283-.11.237-.15.811-.471.878.019.082-.022.17-.24.23-.304.106-.114.27-.274.427-.28.248-.01.644.402.803.528.235.187.531.328.524.655.002-.278.174-.658.49-.617.088.259.085.583.114.857q.048.304.027.61l-.002.114c.065.208.476.318.662.384.14.05.48.052.602.17.087.083.053.294.047.4-.018.294-.161.539-.314.78-.062.096-.274.277-.238.407q.128.126.221.277.031.065.02.134c.032.344.048.694-.298.874-.098.05-.352.115-.41.202-.062.095-.013.267-.009.375.011.238-.006.503-.132.714-.058.097-.07.117-.19.082a.2.2 0 0 1-.135-.069q-.008-.061-.065-.07a.4.4 0 0 0-.174.213q-.135.264-.358.46c-.034.034-.582.598-.718.344a1.6 1.6 0 0 1-.006-.258q0-.103-.007-.205c.028-.09.04-.083.113-.035.115.075.105.362.06.465-.116.261-.51.235-.737.259q-.316.065-.627-.02a1.3 1.3 0 0 1-.547-.304c-.058-.113-.023-.263-.015-.384-.107.181-.49.163-.662.142-.114-.014-.225-.02-.27-.153-.036-.103.038-.225-.02-.322-.094.252-.226.436-.518.462a.58.58 0 0 1-.48-.182c-.186-.197-.261-.519-.37-.756q-.15-.315-.352-.6a.5.5 0 0 1-.15-.263c.085.035.072.238.008.298-.208.195-.663-.155-.75-.32a1.6 1.6 0 0 1-.162-.675c-.003-.108-.013-.244.052-.339.075-.109.241-.102.161.049-.07-.096-.045-.37-.046-.453-.006-.262-.019-.526.003-.788.016-.198.108-.365.106-.341z"/><path fill="#BB202A" d="M4.294 7.329c-.023-.003-.038-.026-.058-.036-.01.012-.013.019-.025.025h-.075a.51.51 0 0 1-.416-.143c-.06.024-.01.098-.062.114a.5.5 0 0 1-.187-.007.23.23 0 0 1-.14-.097c-.03.002-.056.031-.085.04-.042.015-.09.016-.134.019-.04.004-.095.013-.135 0-.046-.014-.083-.065-.13-.065a.4.4 0 0 1-.01.07c-.017.019-.095-.008-.093-.008-.122-.041-.245-.118-.353-.185-.07-.044-.144-.087-.195-.154.028.017-.015-.1-.022-.116a5 5 0 0 0-.179-.374c-.026 0-.008.043-.03.057-.045.028-.074-.086-.08-.11a1 1 0 0 1-.028-.284c.002-.038.008-.076.055-.059q.015-.023-.02-.038a.2.2 0 0 1-.037-.11l-.017-.192a1 1 0 0 1-.006-.118.8.8 0 0 0 .011-.18c-.002-.056-.023-.168.01-.22.053-.003.065.038.054.082-.076.027-.091-.253-.088-.288.002-.022.017-.139.067-.088.02-.012.016-.053.02-.074.01-.056.02-.119.051-.169.033-.055.108-.146.173-.144.025.001.018.008.037-.012s.024-.053.032-.078c.015-.05.025-.101.042-.152.013-.041.03-.123.073-.145.022.012 0 .042.024.052.023.01.043-.026.052-.037.04-.052.093-.129.158-.149.032-.01.085-.012.106.02.023-.12.045-.243.098-.354l.089-.164a.07.07 0 0 1 .064-.05c.036-.007.075-.008.104.02.028.03.022.123.062.133.04-.06.075-.124.12-.181.08-.105.153-.155.284-.164.065-.005.288-.039.254.09.014-.12.106-.242.186-.326.045-.047.118-.125.194-.114.064.009.103.08.132.132a.23.23 0 0 1 .04.113.1.1 0 0 0 .003.058c.057-.066.06-.158.146-.202a.6.6 0 0 1 .213-.029q.08-.005.16-.001c.054.001.081.015.084.071.002.025-.015.115.005.132.045-.024.074-.062.123-.085a.5.5 0 0 1 .163-.043 1 1 0 0 1 .127-.01c.172.04.125.224.142.353.03-.006.06-.028.088-.04.114-.049.228-.082.344-.025.112.054.16.132.175.254.008.076.001.154.01.23.03.013.053-.014.081-.016q.053 0 .082.052.071.075.121.163c.058.093.082.18.076.29-.005.1-.079.158-.133.234.033-.003.046-.014.078.006a.4.4 0 0 1 .173.23c.032.125.043.342-.094.422-.046.028-.118.025-.08.105.027.06.082.092.12.143.045.06.046.106.048.18 0 .058.014.114-.028.161-.04.046-.106.052-.157.074-.017.007-.073.026-.089.043-.032.033-.007.122-.002.16.024.187.099.412-.033.572a.4.4 0 0 1-.22.128c-.02.004-.034.009-.052-.005-.013.08.015.147-.036.221a.23.23 0 0 1-.099.079c-.062.018-.137.011-.202.024q-.036.008-.073.011c-.036.003-.082-.007-.114.008l-.077.087-.052.048a.7.7 0 0 1-.18.1c-.069.028-.136.018-.209.02-.11 0-.22.005-.332.007l-.094.002c-.021 0-.08-.01-.098 0-.023.013-.018.042-.037.058-.046.036-.17-.025-.203-.038L4.045 7.3a.2.2 0 0 0-.089-.023c-.018-.007-.043-.032-.01-.037"/><path fill="#CB2027" d="M6.062 5.563c.008-.133-.06-.18-.135-.288-.087-.128-.133-.276-.191-.418-.038-.09-.151-.26-.14-.36.012-.13.183-.145.284-.137.076.006.149.017.185.092.022.045.039.11-.018.126-.032-.12-.018-.26-.022-.383-.009-.289 0-.512.225-.712.073-.066.18-.203.28-.126.071.054.035.134.046.209.107-.015.256-.291.296-.35.079-.114.148-.246.245-.345.005.061-.005.136.055.174.099-.02.22-.293.258-.345a1.4 1.4 0 0 1 .537-.448c.093-.042.21-.109.257.016.02.053-.02.09.024.134a.7.7 0 0 0 .261-.138 1 1 0 0 1 .247-.137c.065.021.035.167.03.223-.007-.132.089-.167.211-.21q.29-.062.584-.062.324-.015.648-.016c.088-.003.311-.053.364.032.023.037.005.116.001.156.088-.105.086-.125.22-.157.165-.04.405-.031.576-.013.014.077-.018.278-.118.285.015-.102.105-.133.193-.152.183-.04.587-.086.754.024.126.084.157.32.104.466-.065-.155.477-.094.553-.037.27.201.054.633-.01.872q-.01-.033.023-.05c.146.11.14.365.158.528.013.122.06.324-.01.441.062-.033.106-.087.17-.117.102.129.083.287.086.446.003.22.023.448.004.667-.005.053-.022.496-.149.404-.057.08.02.254-.036.36-.064.12-.189.205-.27.314-.084.111-.126.251-.284.271a.8.8 0 0 1-.247-.01c.094-.136.288.03.341.117.035.058.088.282.04.349-.024.034-.091.027-.114.062-.027.041 0 .103-.029.15-.073.125-.282.178-.405.232-.158.07-.34.177-.514.19q-.019-.04.012-.07c.045.038.06.137.037.192-.06.142-.273.095-.393.103-.178.013-.047.066-.165.163-.057.047-.172.02-.24.018q.037-.015.058.02c-.01.087-.125.09-.188.067-.093-.033-.125-.12-.159-.201-.04-.093-.042-.106-.15-.08-.056.012-.127.037-.181.055-.101.036-.145.115-.202.203-.078.12-.119.184-.265.22-.193.046-.29-.005-.379-.177-.126-.243-.195-.528-.361-.748-.051.097.011.22-.001.324-.016.126-.094.101-.209.11-.129.01-.192.005-.267-.123-.033-.056-.093-.19-.033-.24.08.043.121.272.08.35-.034.067-.212.106-.273.124a1.3 1.3 0 0 1-.53.034c-.26-.033-.458-.147-.527-.405-.041-.15-.035-.341.103-.445-.032.223-.209.374-.412.443-.137.046-.345.11-.467.008-.21-.177-.09-.586-.083-.81-.192-.037-.338.068-.348-.22a1.13 1.13 0 0 1 .178-.622c.049-.085.165-.393.263-.399a.234.234 0 0 1-.262.21c-.062-.008-.065-.003-.11-.048-.105-.103-.134-.401-.146-.53-.01-.109-.245-.904-.018-.886"/><path fill="#BB202A" d="M14.244 5.842c-.267.006-.562-.04-.793.118.14.14.207.313.242.51.084.461-.665.44-.876.706.105.114.254.197.35.318.094.117.065.253.066.393.001.06-.005.129.003.189.01.086.06.112.085.18.03.084.023.251.023.326a.76.76 0 0 1-.093.428q-.084.151-.16.305c-.05.22.312.276.467.298.093.013.313-.03.339.082.02.087-.025.199-.004.287.049.211.314.002.435.09l.13.245q.087.271.085.558c.026.172.047.3.19.4.237.162.567-.041.824.05.01.14.022.286.06.423.144.029.236-.015.34-.114.132-.126.165-.132.279.025.048.068.077.115.153.146.131.055.372.02.515.014.444-.014.926-.115 1.254-.424.099.018.09.1.146.157.045.046.05.05.123.054.361.019.644-.383.833-.647.047.02.055.075.08.115a.8.8 0 0 0 .227.232.7.7 0 0 0 .332.099c.187.022.378.048.565.058.145.007.227.04.289-.105.066-.156.072-.437.025-.603a.2.2 0 0 0-.095.002c.418.02.573-.331.605-.691.006-.058-.01-.14.009-.194.02-.058.083-.111.118-.16.083-.118.17-.23.259-.346.04-.052.084-.092.096-.155-.004.075-.076.138-.123.187-.043-.072.016-.203.033-.278.074-.304.212-.597.311-.893.09-.273.185-.557.212-.844.006-.068.039-.324-.011-.385-.045-.055-.267-.02-.338-.016-.138.01-.38.1-.253.273.185-.06.21-.507.135-.66-.16.001-.315.057-.479.06-.146.002-.224-.002-.225-.18 0-.27.173-.547.31-.76.05-.078.321-.408.257-.542-.196.054-.328.163-.5.264-.071.042-.179.113-.259.063a2.3 2.3 0 0 1-.106-.391q-.089-.37-.155-.743c-.058-.333-.063-.748-.223-1.053-.165.014-.55-.002-.529.265 0-.165-.266.075-.289.09-.216.147-.47.275-.737.277-.142 0-.184.005-.207-.11-.02-.1.008-.22-.006-.32-.044.101-.136.175-.214.25a4 4 0 0 1-.24.215q-.121.115-.262.208c-.176-.01-.097-.28-.075-.392-.05-.048-.118.015-.167.04a7 7 0 0 1-.622.294c-.182.07-.364.15-.558.11-.043-.009-.049-.04-.102-.03l-.17.107-.385.214-.425.202a.75.75 0 0 1-.293.104c-.075-.007-.09-.028-.168-.058-.096.066-.072.25-.067.351.005.093.028.078-.042.14-.157.14-.387.136-.557.572zm-7.502 8.686c-.037-.005-.06-.042-.091-.058-.015.02-.02.03-.04.04l-.12.002a1 1 0 0 1-.182.002c-.183-.01-.347-.112-.48-.23-.096.037-.013.155-.098.18a.7.7 0 0 1-.297-.011.36.36 0 0 1-.223-.154c-.05.003-.09.05-.135.065-.067.022-.144.023-.213.029-.065.005-.151.02-.215 0-.073-.023-.133-.103-.207-.103a.6.6 0 0 1-.016.111c-.029.03-.152-.012-.15-.011-.193-.066-.388-.19-.56-.296-.113-.07-.23-.137-.31-.244.045.026-.025-.161-.035-.186a8 8 0 0 0-.285-.596c-.042 0-.012.07-.048.09-.071.045-.117-.136-.128-.175a1.7 1.7 0 0 1-.045-.451c.002-.06.013-.12.088-.094q.024-.036-.032-.062a.3.3 0 0 1-.058-.174q-.016-.153-.028-.306a2 2 0 0 1-.01-.19c.017-.098.02-.179.017-.285-.004-.09-.036-.267.016-.352.084-.003.103.061.086.132-.12.042-.146-.404-.14-.46.004-.034.028-.22.107-.14.033-.019.027-.084.033-.116.016-.09.033-.19.08-.27.053-.087.172-.234.277-.23.038.002.028.012.059-.019s.039-.083.05-.123c.024-.08.041-.163.066-.243.02-.066.048-.197.117-.23.035.018 0 .065.04.081.035.015.068-.041.081-.06.064-.081.148-.203.253-.236.05-.015.135-.019.168.032.036-.191.071-.387.156-.565l.141-.26q.028-.074.103-.08c.057-.01.12-.011.165.034.046.046.036.195.1.21.064-.096.119-.197.19-.289.126-.166.244-.246.452-.261.104-.008.459-.061.405.142.023-.19.17-.385.295-.517.072-.076.189-.199.31-.183.101.015.165.129.211.21a.36.36 0 0 1 .065.18.14.14 0 0 0 .004.092c.092-.105.094-.251.233-.32a.9.9 0 0 1 .34-.047 3 3 0 0 1 .254-.003c.085.003.13.025.133.115.002.038-.025.182.007.209.073-.038.118-.099.196-.136a.8.8 0 0 1 .26-.068q.1-.017.201-.017c.274.066.2.358.227.562.048-.01.095-.044.14-.062.181-.08.363-.132.548-.042.178.088.256.21.278.405.013.122.002.246.017.367.047.02.083-.023.128-.025q.084 0 .13.082.113.118.193.26a.74.74 0 0 1 .12.461c-.009.158-.124.252-.213.372.054-.004.075-.02.125.01a.62.62 0 0 1 .276.365c.052.2.068.545-.149.673-.074.043-.19.04-.13.167.045.094.132.148.193.228.071.095.074.169.076.287.002.092.022.182-.044.258-.063.071-.168.082-.25.117-.026.01-.115.041-.142.069-.05.053-.012.193-.004.256.038.296.156.654-.052.91a.63.63 0 0 1-.352.203c-.033.007-.054.013-.083-.007-.02.126.024.234-.057.352a.37.37 0 0 1-.157.124c-.099.03-.218.018-.321.04-.04.007-.076.017-.116.02-.057.002-.13-.013-.181.012a3 3 0 0 0-.124.139 1 1 0 0 1-.083.077 1.2 1.2 0 0 1-.286.16c-.11.042-.217.028-.333.03-.176.001-.352.008-.528.012l-.15.003c-.034.001-.127-.015-.156 0-.036.02-.028.068-.058.092-.074.057-.272-.04-.323-.061l-.166-.069a.4.4 0 0 0-.142-.037c-.028-.01-.069-.051-.015-.059"/><path fill="#831618" d="M13.155 11.723q.01.009.022.014.031.018.056.043.082.073.135.165.047.083.083.172a3 3 0 0 0 .09.224.2.2 0 0 1 .014.095q-.008.038-.018.075c-.006.03-.014.06-.02.112l.027-.028c.01-.012.025-.023.035-.036q.014-.024.023-.05a.5.5 0 0 0 .035-.14q.005-.037.002-.076-.007-.044-.016-.087c-.015-.08-.045-.158-.057-.239-.007-.038-.01-.08-.026-.116a.6.6 0 0 0-.061-.106q-.025-.039-.057-.07c-.009-.008-.078-.332-.087-.34"/><path fill="#831618" d="M13.86 12.294c-.288-.1-.903.596-.625.29-.078.074-.066.091-.122.184q-.07.135-.12.277-.044.105-.085.211c-.055.142-.111.284-.135.434-.026.17-.027.346-.032.518-.01.323.088.635.175.936.031.113.076.219.121.326.05.116.086.24.153.346.036.058.073.123.127.165q.092.07.187.137c.1.072.202.145.32.187.065.024.14.061.213.056a.4.4 0 0 0 .174-.052c.082-.047.17-.094.245-.154a1 1 0 0 0 .188-.2c.053-.069.113-.14.153-.216.1-.192.142-.411.197-.617.032-.123.054-.242.06-.367.006-.103.008-.203.018-.305a1.5 1.5 0 0 0-.006-.297c-.014-.127-.023-.252-.049-.375l-.057-.256c-.01-.043-.014-.089-.024-.132-.017-.074-.071-.144-.112-.206-.076-.117-.166-.226-.25-.339-.078-.109-.062-.338-.544-.493"/><path fill="#831618" d="M12.775 12.52c.005.017.018.029.026.045.018.038.03.082.046.12.017.042.03.088.051.128.02.036.047.068.07.102.02.028.045.054.06.086.006.014.019.057.036.063.017-.003.016-.048.02-.062.004-.025.001-.05.04-.076a.1.1 0 0 0-.007-.034c-.01-.027-.034-.053-.052-.077-.011-.014-.013-.028-.02-.043-.005-.014-.013-.02-.022-.034a.2.2 0 0 1-.028-.054c-.006-.02-.02-.035-.026-.053-.006-.016-.004-.033-.009-.05a2 2 0 0 0-.114-.21c-.019-.027.029.081-.071.15"/><path fill="#CB2027" d="M12.481 13.05c-.086.095.012.1-.043.216a1.3 1.3 0 0 1-.137.22.5.5 0 0 0-.069.229c-.005.072.008.14.014.212.011.12.012.236.038.353.017.079.032.143.09.203.035.036.074.08.115.108.027.018.05.036.08.044.043.012.093.01.136.014.118.012.232-.002.347-.027.102-.022.22-.03.314-.078.126-.063.187-.17.24-.296q.034-.087.06-.177c.016-.055.02-.106.03-.162.006-.044.017-.078.005-.122a.4.4 0 0 1-.011-.115c.005-.105-.021-.199-.043-.3-.017-.082-.024-.176-.054-.252-.013-.034-.041-.054-.06-.083a.2.2 0 0 0-.059-.06l-.058-.045a.3.3 0 0 0-.139-.053c-.036-.006-.075-.002-.111-.003-.057-.002-.111-.006-.168-.003a2 2 0 0 0-.314.051c-.037.01-.06.038-.096.042s-.091.03-.106.087z"/><path fill="#FCE2E3" d="M-22.628 27.988a62.3 62.3 0 0 0 27.572 3.05c5.214-.604 9.892-2.096 14.38-4.817 3.115-1.889 6.345-4.226 9.415-6.188 9.736-6.222 15.826-5.336 27.38-5.069-.825 1.742 3.993 2.593 2.16 3.193s-4.018.586-5.875 1.105c-4.406 1.232-7.161 2.989-9.316 7.02-2.155 4.033-1.982 2.89-4.396 5.95-9.464 12-27.066 10.305-26.277 12.612.79 2.308 32.166 7.42 31.008 9.565-1.187 2.2-3.69 3.438-6.173 3.74s-4.987-.188-7.44-.676l-25.3-5.04c-3.611-.718-7.325-1.48-10.39-3.518-3.823-2.544-6.145-6.73-8.879-10.419s-6.498-7.222-11.09-7.322"/><path fill="#C12026" d="M27.777 20.203c6.927-4.44 15.535-5.707 23.634-5.32-8.083.647-16.245 1.802-23.634 5.32m51.111-1.457c-7.531.034-15.055.256-22.557.838-3.437.274-6.802.643-9.666 2.707-2.078 1.382-3.08 3.351-4.313 5.5a28.6 28.6 0 0 1-2.93 4.145c-1.093 1.29-2.337 2.459-3.63 3.544a37.6 37.6 0 0 1-6.835 4.555C22.44 43.471 14.549 44.43 7.546 42c4.827 1.38 9.98 1.425 14.797.055 6.181-1.75 11.773-5.42 16.129-10.111.678-.772 1.33-1.59 1.916-2.432.968-1.364 1.734-2.827 2.607-4.264.82-1.375 1.924-2.637 3.267-3.536a13.4 13.4 0 0 1 4.998-2.128 25 25 0 0 1 2.51-.389c8.35-.74 16.752-.755 25.118-.448z"/><path stroke="#F5841F" stroke-linecap="round" stroke-linejoin="round" stroke-width="0.971958" d="M5.588 21.003c.525 3.999 3.204 6.447 7.61 8.982 4.011 2.309 9.123 2.916 13.15 2.66 2.435-.156 4.693-1.292 6.796-2.53 12.48-7.342 23.014-24.767 27.764-38.438"/><path fill="#FEDAC2" d="M-2.5 23.474a13.18 13.18 0 0 0 8-1.728c-.387-.135-.525-.66-.35-1.03.177-.368.572-.588.97-.682.564-.136 1.19-.057 1.67.27.48.328.788.915.723 1.491-.07.618-.524 1.118-.992 1.528-1.473 1.29-3.297 2.137-5.188 2.645-1.892.508-3.856.688-5.814.757"/><path stroke="#F5841F" stroke-linecap="round" stroke-linejoin="round" stroke-width="0.971958" d="M6.201 21.174c-.94-.734-2.353-.79-3.349-.134-.308.202-.585.468-.939.571-.331.096-.684.037-1.024-.023l-1.206-.214c-.265-.047-.532-.095-.8-.091-.925.01-1.774.64-2.2 1.461-.427.82-.475 1.797-.303 2.706.103.549.282 1.08.46 1.61l1.016 3.017c.1.296.203.6.405.838.2.24.524.402.826.325"/><path fill="#FEDAC2" d="M44.205 29.247a13.18 13.18 0 0 1-7.711-2.742c.4-.084.604-.588.478-.976-.127-.388-.49-.657-.874-.802-.543-.207-1.173-.21-1.691.054-.518.262-.9.805-.909 1.385-.01.62.376 1.176.787 1.642 1.295 1.469 2.994 2.544 4.805 3.29 1.81.748 3.736 1.18 5.668 1.5"/><path stroke="#F5841F" stroke-linecap="round" stroke-linejoin="round" stroke-width="1.05295" d="M35.871 25.846c1.027-.606 2.435-.481 3.338.298.28.24.52.54.858.688.316.138.674.124 1.019.109l1.223-.057c.27-.013.54-.026.805.012.917.129 1.677.864 1.994 1.733s.239 1.843-.048 2.722c-.173.531-.42 1.036-.664 1.538l-1.395 2.86c-.137.281-.28.569-.509.78-.23.21-.572.331-.861.215"/><path fill="#FEDAC2" d="M19.742 26.778s2.807.372 1.321 2.06-2.472 2.277-2.535 1.425 1.002-2.201.097-2.374c-.905-.171 1.118-1.112 1.118-1.112m7.295-.337s2.83-1.078 2.293 1.266-1.164 3.399-1.658 2.63c-.495-.769-.18-2.58-1.12-2.28-.938.298.485-1.616.485-1.616"/><path fill="#801517" d="M19.587 20.402s-3.808 1.925-4.657 3.513 1.338 4.313 3.697 4.667 2.243-.571 2.243-.571-2.396-2.373-1.43-3.037c.965-.663 4.377-3.166 4.766-4.238"/><mask id="b" width="11" height="9" x="14" y="20" maskUnits="userSpaceOnUse" style="mask-type:luminance"><path fill="#fff" d="M19.587 20.402s-3.808 1.925-4.657 3.513 1.338 4.313 3.697 4.667 2.243-.571 2.243-.571-2.396-2.373-1.43-3.037c.965-.663 4.377-3.166 4.766-4.238"/></mask><g mask="url(#b)"><path fill="#431113" d="M20.987 22.024a.4.4 0 0 0-.176-.01c-.148.032-.286.098-.436.128a5 5 0 0 0-1.45.527c-.404.226-.764.642-1.046 1.006-.265.342-.473.737-.538 1.163-.042.274-.024.559-.105.824-.16.526-.721.886-1.272.86-.425-.02-.802-.232-1.17-.424-.136-.072-.419-.28-.576-.268-.184.014-.164.28-.19.437-.02.124-.067.24-.095.362-.024.106-.026.226-.03.334-.009.237.11.466.222.667.184.332.425.627.633.945.096.147.2.286.303.428.132.183.255.37.409.537.17.185.351.368.563.506.142.093.278.177.44.228.104.032.22.045.327.063q.423.07.851.099l1.28.09c.089.008.186.03.273-.001.233-.083.476-.145.702-.253.213-.103.419-.245.567-.43.126-.155.259-.378.283-.579.012-.106.012-.216.019-.323.01-.165.033-.332.034-.497.002-.247-.17-.458-.338-.626-.181-.183-.397-.332-.59-.503-.142-.125-.27-.261-.402-.395-.133-.136-.305-.232-.364-.42-.064-.205-.145-.414-.18-.626-.04-.234-.01-.46.006-.697.007-.101-.002-.248.03-.351.04-.133.139-.246.206-.365.126-.221.33-.41.503-.595l.238-.253c.115-.121.236-.202.38-.28.155-.083.269-.231.36-.377.097-.154.174-.32.257-.48.064-.125.162-.242.218-.369.058-.131.061-.266.071-.405"/></g><path fill="#801517" d="M25.55 29.266s-10.168-1.47-6.917-5.816c.638-.854 2.042-1.594 3.795-1.742 2.195-.185 4.362-.692 4.362-.692s1.065 3.01-.706 3.4l-2.16.203s1.34-.508 3.375.48c1.083.523-.121 4.47-1.75 4.168"/><path fill="#FEDAC2" d="M29.622 16.166s4.601.178 5.381-.384c.497-.359.49-1.667 1.236-1.768.745-.1-.078 1.078.083 1.4.16.32-.232.833.345 1.262.461.343-.296.598-.652.418 0 0-1.548.971-7.103.94m-11.579-3.846s-1.22 1.013-3.059 1.064c-1.838.05-1.563-1.214-2.32-.901-.306.126.49.848.299.938-.472.223-1.283-.746-1.46-.105-.249.898.954 1.863 1.603 1.838.65-.025 1.719.419 5.46-.594"/><path fill="#FBDADA" d="M21.31 13.102s-5.965-.468-4.07 3.005c1.456 2.672 3.11.225 3.11.225s-2.45 3.305-1.969 4.257 2.899 1.768 3.864 1.105c-.233-1.85.99-4.786.99-4.786s-1.529 3.372-.696 4.532 4.666 1.438 4.719.708.198-2.735-.283-3.686l-.677-.782s1.865 3.212 3.482.599-.427-4.778-3.556-4.638-4.914-.539-4.914-.539"/><mask id="c" width="15" height="10" x="16" y="13" maskUnits="userSpaceOnUse" style="mask-type:luminance"><path fill="#fff" d="M21.31 13.102s-5.965-.468-4.07 3.005c1.456 2.672 3.11.225 3.11.225s-2.45 3.305-1.969 4.257 2.899 1.768 3.864 1.105c-.233-1.85.99-4.786.99-4.786s-1.529 3.372-.696 4.532 4.666 1.438 4.719.708.198-2.735-.283-3.686l-.677-.782s1.865 3.212 3.482.599-.427-4.778-3.556-4.638-4.914-.539-4.914-.539"/></mask><g mask="url(#c)"><mask id="d" width="38" height="38" x="4" y="-4" maskUnits="userSpaceOnUse" style="mask-type:luminance"><path fill="#fff" d="M41.016 2.043 9.637-3.337 4.26 28.02l31.38 5.38z"/></mask><g mask="url(#d)"><mask id="e" width="4" height="4" x="29" y="13" maskUnits="userSpaceOnUse" style="mask-type:luminance"><path fill="#fff" d="m30.08 13.08-.431 2.51 2.51.43.43-2.509z"/></mask><g fill="#EC174D" mask="url(#e)"><path d="M29.772 15.195a.237.237 0 1 0-.028-.473.237.237 0 0 0 .028.473m.215-1.255a.237.237 0 1 0-.028-.472.237.237 0 0 0 .028.473"/></g><mask id="f" width="4" height="4" x="29" y="15" maskUnits="userSpaceOnUse" style="mask-type:luminance"><path fill="#fff" d="m29.648 15.589-.43 2.509 2.51.43.43-2.509z"/></mask><g fill="#EC174D" mask="url(#f)"><path d="M30.488 18.544a.237.237 0 1 0-.028-.473.237.237 0 0 0 .028.473m-1.146-.84a.237.237 0 1 0-.029-.473.237.237 0 0 0 .029.472m.215-1.254a.237.237 0 1 0-.029-.473.237.237 0 0 0 .029.473"/></g><mask id="g" width="4" height="4" x="28" y="18" maskUnits="userSpaceOnUse" style="mask-type:luminance"><path fill="#fff" d="m29.218 18.097-.43 2.508 2.51.43.43-2.508z"/></mask><g fill="#EC174D" mask="url(#g)"><path d="M30.059 21.053a.237.237 0 1 0-.029-.472.237.237 0 0 0 .029.472m-1.149-.841a.237.237 0 1 0-.028-.472.237.237 0 0 0 .028.472m1.364-.413a.237.237 0 1 0-.029-.473.237.237 0 0 0 .029.473m-1.148-.841a.237.237 0 1 0-.028-.472.237.237 0 0 0 .028.472m1.362-.414a.237.237 0 1 0-.028-.472.237.237 0 0 0 .028.472"/></g><mask id="i" width="4" height="4" x="28" y="20" maskUnits="userSpaceOnUse" style="mask-type:luminance"><path fill="#fff" d="m28.786 20.606-.43 2.509 2.51.43.43-2.509z"/></mask><g fill="#EC174D" mask="url(#i)"><path d="M28.479 22.72a.237.237 0 1 0-.028-.472.237.237 0 0 0 .028.473m1.364-.413a.237.237 0 1 0-.029-.473.237.237 0 0 0 .029.473m-1.149-.842a.237.237 0 1 0-.028-.472.237.237 0 0 0 .028.472m1.365-.413a.237.237 0 1 0-.029-.473.237.237 0 0 0 .029.473"/></g><mask id="j" width="4" height="4" x="27" y="12" maskUnits="userSpaceOnUse" style="mask-type:luminance"><path fill="#fff" d="m27.569 12.65-.43 2.509 2.51.43.43-2.509z"/></mask><g fill="#EC174D" mask="url(#j)"><path d="M29.772 15.194a.237.237 0 1 0-.028-.473.237.237 0 0 0 .028.473m-1.363.414a.237.237 0 1 0-.028-.472.237.237 0 0 0 .028.472m-1.149-.841a.237.237 0 1 0-.028-.472.237.237 0 0 0 .029.472m2.726-.827a.237.237 0 1 0-.028-.472.237.237 0 0 0 .028.473m-1.363.413a.237.237 0 1 0-.028-.473.237.237 0 0 0 .028.473m-1.148-.841a.237.237 0 1 0-.028-.472.237.237 0 0 0 .028.472m1.364-.413a.237.237 0 1 0-.028-.472.237.237 0 0 0 .028.472"/></g><mask id="k" width="4" height="4" x="26" y="15" maskUnits="userSpaceOnUse" style="mask-type:luminance"><path fill="#fff" d="m27.138 15.158-.43 2.508 2.51.43.43-2.508z"/></mask><g fill="#EC174D" mask="url(#k)"><path d="M29.341 17.703a.237.237 0 1 0-.028-.473.237.237 0 0 0 .028.473m-1.363.413a.237.237 0 1 0-.028-.472.237.237 0 0 0 .028.472m-1.148-.841a.237.237 0 1 0-.028-.473.237.237 0 0 0 .028.473m2.726-.826a.237.237 0 1 0-.028-.473.237.237 0 0 0 .028.473m-1.363.413a.237.237 0 1 0-.028-.472.237.237 0 0 0 .028.472m-1.148-.842a.237.237 0 1 0-.029-.472.237.237 0 0 0 .029.473m1.364-.413a.237.237 0 1 0-.028-.472.237.237 0 0 0 .028.472"/></g><mask id="l" width="4" height="4" x="26" y="17" maskUnits="userSpaceOnUse" style="mask-type:luminance"><path fill="#fff" d="m26.707 17.666-.43 2.509 2.51.43.43-2.509z"/></mask><g fill="#EC174D" mask="url(#l)"><path d="M28.91 20.212a.237.237 0 1 0-.028-.472.237.237 0 0 0 .028.472m-1.362.413a.237.237 0 1 0-.029-.473.237.237 0 0 0 .029.473m-1.148-.84a.237.237 0 1 0-.03-.473.237.237 0 0 0 .03.473m2.726-.827a.237.237 0 1 0-.029-.473.237.237 0 0 0 .028.473m-1.363.413a.237.237 0 1 0-.028-.473.237.237 0 0 0 .028.473m-1.147-.841a.237.237 0 1 0-.029-.472.237.237 0 0 0 .029.472m1.363-.413a.237.237 0 1 0-.028-.473.237.237 0 0 0 .028.473"/></g><mask id="m" width="4" height="4" x="25" y="20" maskUnits="userSpaceOnUse" style="mask-type:luminance"><path fill="#fff" d="m26.276 20.175-.43 2.51 2.51.43.43-2.51z"/></mask><g fill="#EC174D" mask="url(#m)"><path d="M28.479 22.72a.237.237 0 1 0-.028-.472.237.237 0 0 0 .028.472m-2.511-.428a.237.237 0 1 0-.028-.472.237.237 0 0 0 .028.472m2.726-.826a.237.237 0 1 0-.028-.472.237.237 0 0 0 .028.472m-1.362.414a.237.237 0 1 0-.029-.473.237.237 0 0 0 .028.473m-1.148-.842a.237.237 0 1 0-.028-.472.237.237 0 0 0 .028.472m1.365-.413a.237.237 0 1 0-.029-.473.237.237 0 0 0 .029.473"/></g><mask id="n" width="4" height="4" x="24" y="12" maskUnits="userSpaceOnUse" style="mask-type:luminance"><path fill="#fff" d="m25.059 12.219-.43 2.508 2.51.431.43-2.509z"/></mask><g fill="#EC174D" mask="url(#n)"><path d="M27.26 14.767a.237.237 0 1 0-.027-.472.237.237 0 0 0 .028.472m-1.361.41a.237.237 0 1 0-.03-.473.237.237 0 0 0 .03.473m-1.149-.843a.237.237 0 1 0-.028-.473.237.237 0 0 0 .028.473m2.725-.821a.237.237 0 1 0-.028-.472.237.237 0 0 0 .028.472m-1.361.409a.237.237 0 1 0-.03-.473.237.237 0 0 0 .03.473m-1.148-.842a.237.237 0 1 0-.03-.473.237.237 0 0 0 .03.473"/></g><mask id="o" width="4" height="4" x="24" y="14" maskUnits="userSpaceOnUse" style="mask-type:luminance"><path fill="#fff" d="m24.628 14.728-.43 2.508 2.51.43.43-2.508z"/></mask><g fill="#EC174D" mask="url(#o)"><path d="M26.83 17.276a.237.237 0 1 0-.028-.473.237.237 0 0 0 .028.473m-1.362.409a.237.237 0 1 0-.029-.473.237.237 0 0 0 .029.473m-1.148-.842a.237.237 0 1 0-.029-.473.237.237 0 0 0 .029.473m2.725-.822a.237.237 0 1 0-.029-.472.237.237 0 0 0 .029.472m-1.362.409a.237.237 0 1 0-.028-.471.237.237 0 0 0 .028.472m-1.147-.842a.237.237 0 1 0-.029-.473.237.237 0 0 0 .029.473m1.364-.412a.237.237 0 1 0-.03-.472.237.237 0 0 0 .03.472"/></g><mask id="p" width="4" height="4" x="23" y="17" maskUnits="userSpaceOnUse" style="mask-type:luminance"><path fill="#fff" d="m24.197 17.237-.43 2.509 2.51.43.43-2.509z"/></mask><g fill="#EC174D" mask="url(#p)"><path d="M26.399 19.784a.237.237 0 1 0-.028-.472.237.237 0 0 0 .028.472m-1.362.409a.237.237 0 1 0-.029-.472.237.237 0 0 0 .03.472m-1.148-.843a.237.237 0 1 0-.029-.472.237.237 0 0 0 .029.473m2.724-.821a.237.237 0 1 0-.028-.473.237.237 0 0 0 .028.473m-1.362.409a.237.237 0 1 0-.028-.473.237.237 0 0 0 .028.473m-1.147-.842a.237.237 0 1 0-.028-.472.237.237 0 0 0 .028.472m1.363-.412a.237.237 0 1 0-.03-.473.237.237 0 0 0 .03.473"/></g><mask id="q" width="4" height="4" x="23" y="19" maskUnits="userSpaceOnUse" style="mask-type:luminance"><path fill="#fff" d="m23.766 19.745-.43 2.508 2.51.43.43-2.508z"/></mask><g fill="#EC174D" mask="url(#q)"><path d="M25.968 22.292a.237.237 0 1 0-.029-.472.237.237 0 0 0 .029.472m-1.362.41a.237.237 0 1 0-.028-.472.237.237 0 0 0 .028.472m-1.147-.842a.237.237 0 1 0-.029-.472.237.237 0 0 0 .029.472m2.724-.821a.237.237 0 1 0-.028-.473.237.237 0 0 0 .028.473m-1.361.409a.237.237 0 1 0-.029-.472.237.237 0 0 0 .029.472m-1.147-.843a.237.237 0 1 0-.03-.473.237.237 0 0 0 .03.473m1.362-.412a.237.237 0 1 0-.029-.472.237.237 0 0 0 .03.472"/></g><mask id="r" width="4" height="4" x="22" y="22" maskUnits="userSpaceOnUse" style="mask-type:luminance"><path fill="#fff" d="m23.335 22.253-.43 2.508 2.51.43.43-2.508z"/></mask><g mask="url(#r)"><path fill="#EC174D" d="M24.606 22.702a.237.237 0 1 0-.028-.472.237.237 0 0 0 .028.472"/></g><mask id="s" width="4" height="4" x="22" y="11" maskUnits="userSpaceOnUse" style="mask-type:luminance"><path fill="#fff" d="m22.548 11.788-.43 2.509 2.51.43.43-2.508z"/></mask><g fill="#EC174D" mask="url(#s)"><path d="M24.751 14.334a.237.237 0 1 0-.028-.472.237.237 0 0 0 .028.472m-1.362.413a.237.237 0 1 0-.029-.473.237.237 0 0 0 .029.473m-1.149-.843a.237.237 0 1 0-.028-.473.237.237 0 0 0 .029.473m2.726-.824a.237.237 0 1 0-.03-.472.237.237 0 0 0 .03.472m-1.364.412a.237.237 0 1 0-.029-.473.237.237 0 0 0 .029.473"/></g><mask id="t" width="4" height="4" x="21" y="14" maskUnits="userSpaceOnUse" style="mask-type:luminance"><path fill="#fff" d="m22.117 14.297-.43 2.509 2.51.43.43-2.509z"/></mask><g fill="#EC174D" mask="url(#t)"><path d="M24.32 16.843a.237.237 0 1 0-.029-.473.237.237 0 0 0 .029.473m-1.362.412a.237.237 0 1 0-.029-.473.237.237 0 0 0 .029.473m-1.148-.843a.237.237 0 1 0-.029-.472.237.237 0 0 0 .029.472m2.726-.823a.237.237 0 1 0-.029-.473.237.237 0 0 0 .029.473M23.173 16a.237.237 0 1 0-.028-.472.237.237 0 0 0 .028.473m-1.148-.843a.237.237 0 1 0-.028-.473.237.237 0 0 0 .028.473m1.364-.411a.237.237 0 1 0-.029-.473.237.237 0 0 0 .029.473"/></g><mask id="u" width="4" height="4" x="21" y="16" maskUnits="userSpaceOnUse" style="mask-type:luminance"><path fill="#fff" d="m21.687 16.806-.43 2.508 2.51.43.43-2.508z"/></mask><g fill="#EC174D" mask="url(#u)"><path d="M23.89 19.351a.237.237 0 1 0-.029-.472.237.237 0 0 0 .03.472m-1.364.413a.237.237 0 1 0-.029-.473.237.237 0 0 0 .029.473m-1.147-.844a.237.237 0 1 0-.029-.472.237.237 0 0 0 .029.472m2.725-.823a.237.237 0 1 0-.028-.472.237.237 0 0 0 .028.472m-1.363.412a.237.237 0 1 0-.028-.473.237.237 0 0 0 .028.473m-1.147-.842a.237.237 0 1 0-.029-.472.237.237 0 0 0 .029.472m1.363-.412a.237.237 0 1 0-.028-.473.237.237 0 0 0 .028.473"/></g><mask id="v" width="4" height="4" x="20" y="19" maskUnits="userSpaceOnUse" style="mask-type:luminance"><path fill="#fff" d="m21.256 19.315-.43 2.508 2.51.43.43-2.508z"/></mask><g fill="#EC174D" mask="url(#v)"><path d="M23.459 21.86a.237.237 0 1 0-.029-.472.237.237 0 0 0 .029.473m-1.364.411a.237.237 0 1 0-.028-.473.237.237 0 0 0 .028.473m-1.146-.842a.237.237 0 1 0-.029-.473.237.237 0 0 0 .029.473m2.726-.825a.237.237 0 1 0-.029-.473.237.237 0 0 0 .029.473m-1.363.413a.237.237 0 1 0-.03-.473.237.237 0 0 0 .03.473m-1.148-.843a.237.237 0 1 0-.028-.473.237.237 0 0 0 .028.473m1.363-.411a.237.237 0 1 0-.029-.473.237.237 0 0 0 .029.473"/></g><mask id="w" width="4" height="4" x="20" y="21" maskUnits="userSpaceOnUse" style="mask-type:luminance"><path fill="#fff" d="m20.825 21.822-.43 2.51 2.51.43.43-2.51z"/></mask><g fill="#EC174D" mask="url(#w)"><path d="M20.733 22.683a.237.237 0 1 0-.029-.472.237.237 0 0 0 .029.472m1.362-.411a.237.237 0 1 0-.028-.473.237.237 0 0 0 .028.473"/></g><mask id="x" width="4" height="4" x="19" y="11" maskUnits="userSpaceOnUse" style="mask-type:luminance"><path fill="#fff" d="m20.038 11.358-.43 2.509 2.51.43.43-2.509z"/></mask><g fill="#EC174D" mask="url(#x)"><path d="M22.24 13.904a.237.237 0 1 0-.028-.473.237.237 0 0 0 .029.473m-1.363.412a.237.237 0 1 0-.028-.472.237.237 0 0 0 .028.472m-1.147-.843a.237.237 0 1 0-.028-.473.237.237 0 0 0 .028.473"/></g><mask id="y" width="4" height="4" x="19" y="13" maskUnits="userSpaceOnUse" style="mask-type:luminance"><path fill="#fff" d="m19.607 13.867-.43 2.509 2.51.43.43-2.508z"/></mask><g fill="#EC174D" mask="url(#y)"><path d="M21.81 16.412a.237.237 0 1 0-.029-.472.237.237 0 0 0 .029.472m-1.362.412a.237.237 0 1 0-.03-.473.237.237 0 0 0 .03.473m-1.148-.842a.237.237 0 1 0-.03-.473.237.237 0 0 0 .03.473m2.725-.824a.237.237 0 1 0-.028-.473.237.237 0 0 0 .028.473m-1.362.412a.237.237 0 1 0-.029-.473.237.237 0 0 0 .029.473m-1.147-.842a.237.237 0 1 0-.029-.472.237.237 0 0 0 .029.472m1.362-.411a.237.237 0 1 0-.029-.473.237.237 0 0 0 .03.473"/></g><mask id="z" width="4" height="4" x="18" y="16" maskUnits="userSpaceOnUse" style="mask-type:luminance"><path fill="#fff" d="m19.176 16.376-.43 2.508 2.51.43.43-2.508z"/></mask><g fill="#EC174D" mask="url(#z)"><path d="M21.38 18.92a.237.237 0 1 0-.03-.472.237.237 0 0 0 .03.473m-1.364.412a.237.237 0 1 0-.029-.473.237.237 0 0 0 .03.473m-1.148-.842a.237.237 0 1 0-.029-.473.237.237 0 0 0 .029.473m2.726-.823a.237.237 0 1 0-.029-.473.237.237 0 0 0 .029.473m-1.363.412a.237.237 0 1 0-.029-.473.237.237 0 0 0 .03.473m-1.149-.843a.237.237 0 1 0-.028-.473.237.237 0 0 0 .028.473m1.364-.413a.237.237 0 1 0-.03-.473.237.237 0 0 0 .03.473"/></g><mask id="A" width="4" height="4" x="18" y="18" maskUnits="userSpaceOnUse" style="mask-type:luminance"><path fill="#fff" d="m18.746 18.883-.43 2.51 2.51.43.43-2.51z"/></mask><g fill="#EC174D" mask="url(#A)"><path d="M20.949 21.429a.237.237 0 1 0-.029-.473.237.237 0 0 0 .029.473m-1.364.412a.237.237 0 1 0-.028-.473.237.237 0 0 0 .028.473m-1.147-.842a.237.237 0 1 0-.028-.473.237.237 0 0 0 .028.473m2.726-.825a.237.237 0 1 0-.028-.473.237.237 0 0 0 .028.473m-1.364.413a.237.237 0 1 0-.028-.473.237.237 0 0 0 .029.473m-1.148-.843a.237.237 0 1 0-.029-.472.237.237 0 0 0 .029.472m1.363-.412a.237.237 0 1 0-.029-.473.237.237 0 0 0 .03.473"/></g><mask id="B" width="4" height="4" x="17" y="21" maskUnits="userSpaceOnUse" style="mask-type:luminance"><path fill="#fff" d="m18.314 21.392-.43 2.508 2.51.43.43-2.508z"/></mask><g fill="#EC174D" mask="url(#B)"><path d="M20.733 22.683a.237.237 0 1 0-.029-.473.237.237 0 0 0 .029.473m-2.51-.431a.237.237 0 1 0-.028-.472.237.237 0 0 0 .028.472m1.362-.411a.237.237 0 1 0-.028-.473.237.237 0 0 0 .028.473"/></g><mask id="C" width="4" height="4" x="17" y="10" maskUnits="userSpaceOnUse" style="mask-type:luminance"><path fill="#fff" d="m17.528 10.928-.43 2.509 2.51.43.43-2.508z"/></mask><g fill="#EC174D" mask="url(#C)"><path d="M19.73 13.474a.237.237 0 1 0-.028-.472.237.237 0 0 0 .029.472m-1.363.413a.237.237 0 1 0-.029-.473.237.237 0 0 0 .029.473"/></g><mask id="D" width="4" height="4" x="16" y="13" maskUnits="userSpaceOnUse" style="mask-type:luminance"><path fill="#fff" d="m17.097 13.437-.43 2.509 2.51.43.43-2.509z"/></mask><g fill="#EC174D" mask="url(#D)"><path d="M19.3 15.982a.237.237 0 1 0-.029-.473.237.237 0 0 0 .029.473m-1.363.412a.237.237 0 1 0-.028-.473.237.237 0 0 0 .028.473m-1.147-.842a.237.237 0 1 0-.028-.473.237.237 0 0 0 .028.473m2.726-.824a.237.237 0 1 0-.029-.472.237.237 0 0 0 .029.472m-1.363.412a.237.237 0 1 0-.029-.473.237.237 0 0 0 .029.472m-1.148-.841a.237.237 0 1 0-.028-.473.237.237 0 0 0 .028.473m1.363-.412a.237.237 0 1 0-.029-.473.237.237 0 0 0 .029.473"/></g><mask id="E" width="4" height="4" x="16" y="15" maskUnits="userSpaceOnUse" style="mask-type:luminance"><path fill="#fff" d="m16.666 15.944-.43 2.51 2.51.43.43-2.51z"/></mask><g fill="#EC174D" mask="url(#E)"><path d="M18.87 18.49a.237.237 0 1 0-.03-.472.237.237 0 0 0 .03.472m-1.363.412a.237.237 0 1 0-.029-.473.237.237 0 0 0 .029.473m1.577-1.666a.237.237 0 1 0-.028-.473.237.237 0 0 0 .028.473m-1.362.412a.237.237 0 1 0-.028-.473.237.237 0 0 0 .028.473m.215-1.255a.237.237 0 1 0-.028-.472.237.237 0 0 0 .028.472"/></g><mask id="F" width="4" height="4" x="15" y="18" maskUnits="userSpaceOnUse" style="mask-type:luminance"><path fill="#fff" d="m16.235 18.453-.43 2.509 2.51.43.43-2.508z"/></mask><g fill="#EC174D" mask="url(#F)"><path d="M18.439 21a.237.237 0 1 0-.029-.473.237.237 0 0 0 .029.472m-1.364.411a.237.237 0 1 0-.028-.472.237.237 0 0 0 .028.473m1.578-1.667a.237.237 0 1 0-.029-.472.237.237 0 0 0 .029.472m-1.363.412a.237.237 0 1 0-.028-.472.237.237 0 0 0 .029.472m.216-1.254a.237.237 0 1 0-.029-.472.237.237 0 0 0 .029.472"/></g><mask id="G" width="4" height="4" x="15" y="20" maskUnits="userSpaceOnUse" style="mask-type:luminance"><path fill="#fff" d="m15.804 20.962-.43 2.509 2.51.43.43-2.509z"/></mask><g fill="#EC174D" mask="url(#G)"><path d="M18.223 22.253a.237.237 0 1 0-.029-.473.237.237 0 0 0 .03.473m-1.364.411a.237.237 0 1 0-.029-.472.237.237 0 0 0 .029.472m.215-1.254a.237.237 0 1 0-.029-.472.237.237 0 0 0 .029.473"/></g><mask id="H" width="4" height="3" x="14" y="13" maskUnits="userSpaceOnUse" style="mask-type:luminance"><path fill="#fff" d="m14.587 13.006-.43 2.51 2.51.43.43-2.51z"/></mask><g fill="#EC174D" mask="url(#H)"><path d="M16.79 15.552a.237.237 0 1 0-.028-.473.237.237 0 0 0 .028.473m.215-1.255a.237.237 0 1 0-.028-.472.237.237 0 0 0 .028.472"/></g></g><path fill="#EF525A" d="M17.623 16.737s2.68-.329 3.072-1.714c0 0-.25 2.417-1.918 2.662-1.669.245-1.154-.948-1.154-.948m8.514-.352c-.017.053.02.126.036.176.033.1.056.202.085.303.04.139.055.281.083.422.024.123.065.243.09.365.018.093.028.188.063.276.027.07.08.117.114.18.019.034.027.07.05.104.021.034.05.063.071.097.083.125.192.226.298.333.062.063.104.135.162.199.077.084.174.15.252.233.12.13.253.245.382.367.164.157.383.248.608.268.16.014.32.021.48.036.208.017.43.016.597-.133a.4.4 0 0 0 .135-.19c.022-.08.02-.169.025-.25.007-.131.016-.273.045-.402.01-.047.032-.073.051-.116.02-.046.019-.09.027-.14.01-.068.03-.134.043-.2.004-.022.02-.071.009-.09-.013-.025-.081-.018-.107-.02-.112-.006-.222.015-.334.012-.076-.001-.076 0-.129.023a.2.2 0 0 1-.078.023c-.078.011-.154 0-.232-.005-.256-.019-.535-.01-.778-.105a5 5 0 0 1-.575-.29c-.058-.032-.119-.056-.178-.084-.04-.019-.067-.047-.1-.075-.055-.047-.097-.1-.145-.154q-.075-.079-.146-.158c-.055-.062-.089-.133-.138-.199-.08-.108-.107-.237-.18-.346-.048-.07-.09-.163-.154-.221a1 1 0 0 0-.119-.092c-.026-.016-.052-.017-.08-.028-.044-.017-.06-.043-.091-.073-.049-.049-.127-.07-.143-.049zm-1.24 5.704c-.017-.04-.097-.035-.134-.05q-.046-.021-.094-.038l-.277-.098c-.089-.031-.17-.078-.26-.11-.067-.025-.137-.046-.204-.075-.123-.055-.227-.175-.323-.267-.053-.051-.096-.113-.156-.158-.038-.029-.082-.05-.119-.08-.08-.065-.142-.155-.208-.233a.5.5 0 0 1-.095-.215c-.02-.085-.033-.174-.054-.259-.028-.108-.065-.188-.083-.306a2.8 2.8 0 0 1 .002-.813c.033-.234.08-.467.126-.699a7 7 0 0 0 .127-.862c.013-.174.013-.35.04-.522.015-.1.046-.195.055-.295l.01-.156c-.094.029-.167.061-.192.107-.027.05-.025.12-.038.174-.015.06-.049.11-.068.167-.018.05-.02.115-.036.165a4 4 0 0 1-.135.386 1 1 0 0 0-.047.14c-.022.08-.068.15-.084.234-.012.058-.005.113-.022.17-.02.068-.044.134-.058.204-.017.09-.01.16-.047.244a.3.3 0 0 0-.035.093.6.6 0 0 1-.01.11c-.01.034-.026.065-.036.1q-.038.138-.068.277c-.015.068-.053.132-.061.202-.008.053-.021.102-.03.154-.01.07-.01.142-.013.21-.003.053-.026.096-.03.149q-.003.078-.01.155c-.01.101-.06.188-.093.282-.131.049-.267.087-.4.134-.363.127-.723.3-1.114.306a7 7 0 0 1-.473-.012 4 4 0 0 1-.564-.056 7 7 0 0 1-.521-.125 4.6 4.6 0 0 1-.687-.258c-.09-.04-.037-1.003-.098-1.082l-.543 1.881q.015.04.065.047.208.099.418.192.318.14.623.305.217.146.46.236c.377.154.808.148 1.209.175q.394.027.79.059.18.026.357.006c.19-.015.3-.073.4-.241.072-.12.12-.252.157-.387.03.019.06.053.084.078.08.085.211.112.319.153.13.048.26.09.362.185.05.045.1.074.164.093.133.041.263.102.397.138.153.041.322.037.48.049.13.009.264.011.395.027.05.006.085.028.131.043.053.017.165.057.21.02.063-.05.745.655.779.584.015-.032 1.087-.288 1.12-.286 4.182.247-1.746-.717-1.76-.75zm-5.02-9.121c0 .03.03.064.046.09.05.08.122.15.187.219a4.3 4.3 0 0 0 .54.48c.123.091.257.164.384.248.168.113.321.246.49.36.163.109.328.211.503.296.136.065.283.109.415.182.09.051.181.097.267.157.108.075.23.126.337.2.04.029.074.065.118.088.04.021.094.039.135.053.12.041.247.052.371.071.137.022.274.036.41.052l.342-.022c.108 0 .212-.002.315.005 1.709.228 1.208-.149 3.039-.41.044-.059.377-.327.587-.508.196-.17.285-.288.366-.792q-.016-.031-.038-.058c-.023-.025-.062-.039-.093-.052-.085-.036-.185-.044-.275-.056a9 9 0 0 0-.51-.055l-.278-.006a35 35 0 0 1-2.273-.15 5 5 0 0 1-.352-.058c-.087-.019-.14-.037-.142-.055a6 6 0 0 1-.39-.09 3 3 0 0 1-.317-.106 10 10 0 0 1-.546-.151 5 5 0 0 0-.717-.161c-.202-.032-.406-.043-.607-.071-.17-.024-.335-.049-.507-.07-.37-.048-.743-.106-1.115-.133-.243-.018-.485-.045-.728-.062-.138-.009-.284-.006-.418-.042" opacity="0.43" style="mix-blend-mode:multiply"/></g><path fill="#FEDAC2" d="M31.047 5.436s2.28 10.087-6.309 9.237c-8.821-.872-4.646-8.528-4.646-8.528l2.075-2.498"/><mask id="I" width="13" height="12" x="19" y="3" maskUnits="userSpaceOnUse" style="mask-type:luminance"><path fill="#fff" d="M31.047 5.436s2.28 10.087-6.309 9.237c-8.821-.872-4.646-8.528-4.646-8.528l2.075-2.498"/></mask><g mask="url(#I)"><path fill="#FAB998" d="M20.189 13.388c1.792 1.014 9.114 5.17 11.34-7.245a7 7 0 0 1 1.078 1.628c.756 1.606.644 3.148.533 4.69-.368.319-.79.576-1.246.791s-1.002 1.086-1.511 1.241c-4.564 1.86-8.776 2.923-12.754-.457"/></g><path fill="#231F20" d="M21.104 4.336s-2.706-2.902-4.027.957c0 0-1.072-1.014-2.294.042s.072 1.878.072 1.878-1.613-.741-2.502.028c-.889.767.087 1.67.087 1.67s-1.97 1.315-1.454 2.81c0 0 2.678.402 2.045-2.35 0 0 1.435.312 2.103-.264.666-.576.105-1.45.105-1.45s1.006.49 1.91-.485.106-1.45.106-1.45.162.636 2.47.387m12.499 2.575s2.628 1.643-.138 3.228c0 0 .937.67.308 1.765-.63 1.093-1.453.223-1.453.223s.808 1.126.35 1.921c-.457.795-1.296.181-1.296.181s-.717 1.705-1.94 1.53c0 0-.706-1.993 1.5-1.915 0 0-.452-1.054-.108-1.65s1.097-.295 1.097-.295-.525-.699.09-1.536c.614-.838 1.096-.295 1.096-.295s-.512-.03-.663-1.837"/><path fill="#231F20" d="M18.605 7.466s3.644.211 7.173.954c.121.026.936-2.406 1.27-2.327.344.082.209 2.674.358 2.715 1.959.528 3.684 1.248 4.46 2.223 0 0 2.446-8.438-4.77-9.572-7.219-1.135-8.49 6.007-8.49 6.007"/><path fill="#E41E2D" d="M12.687 9.52c.118.053.254.017.377-.022.075-.025.16-.062.179-.139.015-.066-.027-.132-.074-.183-.116-.127-.565-.446-.742-.285-.16.145.124.564.26.628m1.775-2.336.407.42c.06.06.125.124.209.136.09.013.174-.038.25-.087a.7.7 0 0 0 .155-.124c.043-.051.069-.12.051-.184-.024-.093-.123-.143-.213-.178a5 5 0 0 0-.717-.218m2.506-1.735a.3.3 0 0 0-.108-.06c-.04-.01-.087 0-.113.031-.043.054-.005.132.034.19l.417.617c.022.032.044.065.076.088.031.023.075.033.11.016.051-.025.061-.093.06-.15a1 1 0 0 0-.309-.699m14.91 6.596c.028-.034.014-.088-.018-.12a.3.3 0 0 0-.118-.056l-.443-.125c-.043-.013-.09-.024-.132-.01-.059.021-.09.092-.082.154a.33.33 0 0 0 .085.166c.167.196.42.316.677.323a.3.3 0 0 0 .148-.025c.046-.023.081-.07.076-.121M30.275 13.6c-.02.092.048.179.117.241.163.147.367.248.582.291.354.07.413-.433.156-.588-.178-.107-.791-.234-.855.057m-.319 2.101a.9.9 0 0 0-.295-.208.3.3 0 0 0-.117-.028c-.04.002-.081.025-.094.064-.022.066.046.125.104.162l.586.367"/><mask id="J" width="11" height="9" x="17" y="21" maskUnits="userSpaceOnUse" style="mask-type:luminance"><path fill="#fff" d="M25.55 29.267s-10.168-1.47-6.917-5.817c.638-.854 2.042-1.594 3.795-1.741 2.195-.185 4.673.063 4.673.063s.376 2.41-1.017 2.645l-2.16.202s1.34-.507 3.375.48c1.083.524-.121 4.47-1.75 4.168"/></mask><g fill="#431113" mask="url(#J)"><path d="M17.35 25.149c-.073.115-.165.207-.222.333-.098.214-.14.448-.19.677-.039.17-.04.36-.051.534-.02.317.04.626.138.926.12.366.303.716.547 1.012.114.138.23.231.39.302.211.094.432.133.655.19.37.094.728.201 1.073.369.198.096.393.19.597.276.419.176.853.313 1.28.468.282.102.559.219.842.317l.263.09q.217.08.43.174c.347.125.715.18 1.075.253.205.041.438.072.647.06.087-.005.153-.054.227-.097.091-.054.177-.11.267-.167.127-.08.258-.145.389-.219.147-.082.287-.178.43-.266.135-.082.216-.193.307-.318.093-.128.186-.25.294-.363.168-.178.281-.435.313-.677q.015-.106.02-.213c.001-.047-.01-.063-.06-.078-.052-.018-.134-.01-.188-.015l-.26-.018-.98-.071q-.294-.023-.586-.042c-.258-.015-.512-.091-.764-.145-.344-.074-.693-.132-1.035-.221a3 3 0 0 1-.446-.148c-.153-.066-.294-.152-.444-.225a22 22 0 0 1-.955-.497q-1.39-.778-2.498-.995a1.3 1.3 0 0 1-.308-.038c-.428-.113-.461-.506-.55-1.554-.062-.034-.11-.085-.65.387zm9.646-2.55c-.015.048-.017.087-.025.136-.012.079-.046.143-.077.218-.037.09-.08.184-.11.278-.048.159-.215.235-.337.33a2 2 0 0 1-.467.26c-.128.051-.247.105-.38.142-.093.027-.188-.008-.28.02a.5.5 0 0 1-.215.022l-.12-.01c-.064-.004-.136-.02-.2-.014a2 2 0 0 0-.223.038c-.034.008-.076.003-.108.013-.03.01-.047.024-.078.032-.025.006-.046.005-.072.009-.042.005-.078.033-.124.04-.072.01-.145.034-.217.04a2 2 0 0 1-.248.002l-.313-.023-.162-.012c-.022-.001-.048 0-.103-.032-.02-.01-.041-.01-.061-.018-.041-.016-.084-.054-.125-.077a.2.2 0 0 1-.07-.068c-.029-.038-.057-.073-.063-.122-.004-.03.01-.065-.026-.13-.01-.023-.01-.045-.016-.07-.009-.04-.026-.056-.03-.094s0-.07-.015-.107c-.01-.023-.035-.047-.037-.072.028.016-.002.176-.005.214-.005.066-.027.151-.006.216.015.047.047.088.066.135.014.032.026.07.05.097.027.03.048.053.07.086.018.024.06.04.057.073-.043.008-.093-.004-.136-.007-.067-.005-.152 0-.215-.023-.034-.014-.058-.026-.092-.035a1 1 0 0 1-.132-.045.5.5 0 0 0-.153-.048c.096.024.177.071.265.113.038.02.07.059.109.074.026.01.047.003.072.015.073.036.136.087.214.112.049.016.101.006.15.014.04.006.075.021.114.026.044.005.067.019.108.036.035.015.063.009.1.014a.3.3 0 0 1 .105.044c.038.023.073.034.11.055.034.018.053.042.1.104.021.011.052.005.075.006l.203.014.519.038c.102.007.2.029.302.04.058.005.063.025.107.051.027.017.058.01.088.018.045.011.084.04.128.054.084.028.192.033.279.049.222.04.438.092.662.122.076.01.147.03.222.045.045.01.093.007.139.012a.7.7 0 0 1 .25.061c.09.046.201.094.302.104.046.005.112.021.157.007.079-.026.134-.12.18-.183.075-.102.092-.236.104-.36a.7.7 0 0 0 .005-.18c-.016-.096-.048-.157-.09-.242a3 3 0 0 1-.149-.382c-.038-.12-.079-.229-.077-.355"/></g><path fill="#B65C27" d="M24.534 10.34c-.074.219-.11.45-.101.683a.38.38 0 0 1-.205-.362c.012-.148.12-.282.305-.323z"/><path fill="#772415" d="M25.4 13.114c-.146.158-.324.29-.53.382-.685.307-1.602.133-2.112-.4a1.5 1.5 0 0 1-.325-.524 1.49 1.49 0 0 1 .13-1.323c.064-.02.12-.035.183-.054a8.7 8.7 0 0 0 2.92.526h.152a1.64 1.64 0 0 1-.418 1.393"/><path fill="#E41E2D" d="M25.4 13.114c-.146.159-.324.29-.529.382-.686.307-1.602.133-2.112-.4a1.5 1.5 0 0 1-.325-.524c.375-.156.99-.177 1.653-.03.545.122 1.012.334 1.312.572z"/><path fill="#fff" d="M25.665 11.721a.86.86 0 0 1-.389.377c-.265.125-.568.118-.86.093-.386-.037-.777-.109-1.137-.291a1.9 1.9 0 0 1-.732-.645l.085-.103a8.6 8.6 0 0 0 3.033.57"/><path fill="#231F20" d="M22.599 8.804a1.265 1.265 0 0 0-1.782.137.78.78 0 0 1-.475-.524.64.64 0 0 0 .355.692 1.3 1.3 0 0 0-.09.18.75.75 0 0 1-.56-.385.63.63 0 0 0 .5.576 1.3 1.3 0 0 0-.034.28c.538-1.366 2.178-1.012 2.509.223a1.26 1.26 0 0 0-.424-1.179zm6.603 1.723a.75.75 0 0 1-.654.186 1 1 0 0 0-.027-.199.64.64 0 0 0 .558-.542.78.78 0 0 1-.619.344 1.265 1.265 0 0 0-2.422.28c.71-1.065 2.377-.875 2.448.593q.045-.134.058-.276a.624.624 0 0 0 .658-.386"/></g><path fill="#fff" d="m7.482 16.683-.08.36a.04.04 0 0 1-.037.03h-.114a.037.037 0 0 1-.038-.04v-.007c.006-.117-.068-.205-.236-.205-.28 0-.483.23-.51.53-.027.311.19.493.491.492.155 0 .277-.03.345-.052a.038.038 0 0 1 .049.043l-.035.187a.05.05 0 0 1-.03.034 1.7 1.7 0 0 1-.5.065c-.63 0-.885-.362-.846-.731.035-.329.253-.813 1.11-.813.165 0 .297.026.4.054a.044.044 0 0 1 .031.053m-3.58-.052-.021.094a.04.04 0 0 0 .028.048c.036.014.044.049.012.075l-.526.439.09-.413a.14.14 0 0 1 .098-.1l.005-.001a.04.04 0 0 0 .028-.03l.022-.099a.037.037 0 0 0-.036-.045h-.68a.04.04 0 0 0-.04.032l-.022.1a.04.04 0 0 0 .027.046l.007.003c.043.016.092.053.071.153l-.162.741c-.042.203-.11.244-.176.252h-.003a.04.04 0 0 0-.036.032l-.02.095a.04.04 0 0 0 .038.048h.714a.04.04 0 0 0 .036-.03l.025-.11a.04.04 0 0 0-.022-.043l-.005-.002c-.036-.015-.085-.046-.073-.104l.083-.38c.285.52.38.67.72.67h.308a.036.036 0 0 0 .036-.029l.022-.096a.04.04 0 0 0-.038-.049c-.077-.002-.115-.019-.192-.118l-.396-.536.514-.427a.4.4 0 0 1 .2-.075h.005a.04.04 0 0 0 .034-.03l.02-.095a.038.038 0 0 0-.036-.046h-.619a.04.04 0 0 0-.04.032zm1.902.413h.12a.04.04 0 0 0 .037-.03l.082-.369a.037.037 0 0 0-.037-.045H4.742a.04.04 0 0 0-.04.032l-.022.1a.04.04 0 0 0 .025.044l.004.002c.041.016.1.056.074.155l-.248 1.123a.037.037 0 0 0 .037.046h.569a.04.04 0 0 0 .037-.03l.025-.112a.04.04 0 0 0-.02-.04l-.006-.003c-.036-.017-.09-.059-.072-.137.001-.01.055-.254.055-.254h.484a.04.04 0 0 0 .037-.03l.045-.205a.038.038 0 0 0-.037-.046h-.467l.088-.397h.326c.106 0 .138.054.131.148v.005a.04.04 0 0 0 .038.042"/></svg>